<svg width="147" height="147" viewBox="0 0 147 147" fill="none" xmlns="http://www.w3.org/2000/svg">
<g filter="url(#filter0_d_721_2)">
<circle cx="73.7461" cy="69.3174" r="46.25" fill="#9BA3B5"/>
<circle cx="73.7461" cy="69.3174" r="47.25" stroke="white" stroke-width="2"/>
</g>
<path fill-rule="evenodd" clip-rule="evenodd" d="M73.5892 44.6553C73.8464 44.6461 74.4987 44.7104 75.059 44.7839C75.6102 44.8666 76.3176 44.986 76.6207 45.0595C76.9239 45.1238 77.4843 45.2984 77.8609 45.4361C78.2376 45.5648 78.8806 45.8495 79.2848 46.0516C79.689 46.2537 80.2678 46.5845 80.5709 46.7866C80.8741 46.9887 81.4345 47.4204 81.8111 47.7328C82.1877 48.0543 82.7481 48.5871 83.0421 48.9362C83.3361 49.2761 83.777 49.8457 84.0159 50.2039C84.2547 50.553 84.6222 51.1777 84.8243 51.5819C85.0264 51.9861 85.2836 52.5465 85.3846 52.8221C85.4949 53.0977 85.6602 53.6397 85.7613 54.0163C85.8531 54.393 85.9818 54.9901 86.0369 55.3484C86.092 55.6974 86.1379 56.5518 86.1379 57.2316C86.1379 58.0767 86.0828 58.7657 85.9542 59.3904C85.8623 59.8957 85.6694 60.6398 85.5408 61.044C85.403 61.4482 85.0999 62.1739 84.861 62.6516C84.6222 63.1293 84.2088 63.8367 83.9332 64.2133C83.6668 64.59 83.2258 65.1503 82.9594 65.4535C82.693 65.7566 82.1786 66.2527 81.8203 66.5559C81.462 66.859 81.168 67.1254 81.168 67.153C81.168 67.1806 81.4253 67.3 81.7376 67.4194C82.0591 67.5388 82.7665 67.8695 83.3269 68.1451C83.8781 68.4207 84.5027 68.7606 84.7048 68.8984C84.9345 69.0546 85.1642 69.321 85.3295 69.6425C85.4857 69.9549 85.5776 70.2856 85.5776 70.5336C85.5776 70.7449 85.5132 71.0756 85.4306 71.2685C85.3571 71.4523 85.1825 71.7279 85.0447 71.8748C84.9069 72.0218 84.6313 72.2147 84.4292 72.3066C84.2271 72.3985 83.8505 72.4812 83.6025 72.4812C83.2534 72.4812 83.0145 72.4168 82.6379 72.2056C82.3623 72.0494 81.6733 71.7003 81.1221 71.4247C80.5617 71.1491 79.6798 70.7817 79.147 70.6071C78.6142 70.4326 77.7507 70.1937 77.2179 70.0743C76.3635 69.8906 75.9961 69.8722 74.0485 69.8722C72.101 69.8722 71.7335 69.8906 70.8792 70.0743C70.3464 70.1937 69.4185 70.4509 68.8122 70.653C68.2059 70.8551 67.2321 71.2685 66.6534 71.5625C66.0746 71.8657 65.2479 72.3525 64.8161 72.6465C64.3843 72.9497 63.6862 73.5009 63.2544 73.8775C62.8226 74.2541 62.1612 74.9156 61.7846 75.3657C61.4079 75.8067 60.8567 76.5232 60.5628 76.9642C60.2688 77.4051 59.7819 78.2594 59.4788 78.8658C59.1848 79.4721 58.799 80.3999 58.6244 80.9327C58.4499 81.4655 58.2202 82.3474 58.11 82.9078C58.0089 83.459 57.8803 84.4971 57.8436 85.2044C57.7884 86.2425 57.7333 86.564 57.5772 86.8856C57.4669 87.0968 57.2189 87.3816 57.0351 87.5286C56.8422 87.6664 56.5023 87.8318 56.2727 87.9053C55.9052 88.0155 55.795 88.0063 55.354 87.8685C55.0233 87.7583 54.7202 87.5745 54.4721 87.3265C54.2241 87.0785 54.0495 86.8029 53.9761 86.5365C53.8934 86.2517 53.8842 85.774 53.9209 85.0207C53.9485 84.4144 54.0404 83.5049 54.1138 82.9997C54.1965 82.4944 54.3619 81.6676 54.4905 81.1624C54.6191 80.6571 54.8488 79.8671 54.9958 79.4169C55.1519 78.9576 55.5469 78.0298 55.8777 77.35C56.1992 76.6702 56.7412 75.6964 57.0719 75.1912C57.4026 74.6859 57.8803 74.0061 58.1375 73.6754C58.3947 73.3447 58.8724 72.7751 59.2032 72.3985C59.5339 72.031 60.2596 71.3328 60.82 70.8551C61.3712 70.3683 62.3266 69.6517 62.9329 69.2475C63.5392 68.8341 64.6048 68.237 65.303 67.8971C66.5432 67.3 66.5615 67.2908 66.3594 67.1438C66.24 67.0611 65.8817 66.758 65.551 66.4732C65.2203 66.1792 64.715 65.6648 64.4119 65.3341C64.1179 64.9942 63.6678 64.4062 63.4106 64.0296C63.1533 63.6529 62.7491 62.9272 62.5103 62.422C62.2714 61.9167 61.9591 61.1267 61.8305 60.6765C61.7019 60.2172 61.5273 59.4363 61.4538 58.9311C61.3436 58.2697 61.3252 57.6358 61.3528 56.6804C61.3804 55.9455 61.4722 55.036 61.5549 54.6594C61.6376 54.2827 61.8121 53.658 61.9315 53.2814C62.0602 52.9048 62.3266 52.2433 62.5287 51.8116C62.7308 51.3798 63.135 50.6816 63.4198 50.2499C63.7045 49.8181 64.3384 49.0556 64.8253 48.5504C65.3122 48.0451 66.0379 47.3929 66.4329 47.1081C66.8371 46.8233 67.5077 46.4007 67.9395 46.1711C68.3713 45.9414 68.9868 45.6566 69.3175 45.528C69.6482 45.4086 70.2637 45.2157 70.6954 45.1054C71.1272 44.9952 71.8438 44.8574 72.3031 44.7931C72.7532 44.7196 73.3412 44.6645 73.5892 44.6553ZM72.2112 48.78C71.9081 48.8351 71.3936 48.9638 71.0629 49.074C70.7322 49.175 70.2178 49.3863 69.9146 49.5425C69.6114 49.6895 69.1154 49.9926 68.8122 50.2039C68.5091 50.4152 67.9487 50.9205 67.572 51.3155C67.1862 51.7197 66.6993 52.326 66.488 52.6843C66.2768 53.0334 65.9828 53.6489 65.8266 54.0439C65.6796 54.4297 65.4867 55.0544 65.4132 55.4219C65.3305 55.7801 65.2662 56.5334 65.2662 57.0938C65.2571 57.645 65.303 58.3523 65.3581 58.6555C65.4132 58.9586 65.5418 59.4731 65.6521 59.8038C65.7531 60.1345 66.0195 60.7316 66.2216 61.1358C66.4329 61.5401 66.8371 62.1555 67.1127 62.5138C67.3975 62.8629 67.9763 63.4325 68.3988 63.7816C68.8306 64.1215 69.5104 64.5624 69.9146 64.7553C70.3188 64.9574 70.9159 65.1963 71.2466 65.2973C71.5774 65.3984 72.2572 65.5362 72.7624 65.5913C73.479 65.6832 73.8923 65.6832 74.6456 65.6005C75.2703 65.5362 75.9317 65.38 76.5289 65.1779C77.0341 65.0034 77.7782 64.6635 78.1824 64.4246C78.6326 64.149 79.2297 63.6713 79.7441 63.1569C80.3137 62.5873 80.7179 62.0729 81.0578 61.5033C81.3242 61.044 81.6641 60.2907 81.8111 59.8222C81.9673 59.3629 82.1326 58.5728 82.1969 58.0859C82.2704 57.4153 82.2704 56.956 82.1969 56.267C82.1418 55.7618 82.004 55.0544 81.8938 54.7053C81.7927 54.347 81.5539 53.7683 81.3793 53.4192C81.2048 53.0609 80.8833 52.5281 80.6812 52.225C80.4699 51.9218 80.0565 51.4257 79.7441 51.1226C79.441 50.8102 78.9449 50.3968 78.6418 50.1947C78.3386 49.9835 77.8425 49.6895 77.5394 49.5425C77.2362 49.3863 76.6575 49.1567 76.2533 49.0281C75.8491 48.8995 75.2519 48.7708 74.9212 48.7341C74.5905 48.7065 74.1588 48.6698 73.9567 48.6514C73.7545 48.6422 73.4055 48.6422 73.1758 48.6606C72.9461 48.6698 72.5144 48.7341 72.2112 48.78ZM93.5974 72.2056C93.8821 72.2056 94.2312 72.2515 94.369 72.3066C94.516 72.3525 94.764 72.5363 94.9386 72.6924C95.1039 72.8578 95.3244 73.1518 95.4163 73.3539C95.5081 73.556 95.5908 73.8407 95.5908 73.9969C95.5908 74.1439 95.5633 74.4195 95.5265 74.594C95.4898 74.7961 93.9556 77.1754 91.3467 81.0981C87.9293 86.2241 87.1668 87.3173 86.8453 87.5286C86.5146 87.7399 86.3768 87.7766 85.0539 87.7766L81.8938 85.6729C80.1575 84.5154 78.6326 83.4866 78.5223 83.3763C78.4029 83.2753 78.2192 83.0272 78.1273 82.8343C78.0171 82.623 77.9528 82.3015 77.9528 81.9892C77.9528 81.6768 78.0171 81.3553 78.1273 81.1348C78.2284 80.9511 78.4213 80.6847 78.5683 80.5469C78.7061 80.4091 78.9817 80.2345 79.1654 80.1611C79.3583 80.0784 79.6798 80.0141 79.8819 80.0141C80.084 80.0141 80.3596 80.06 80.4974 80.1059C80.6444 80.161 81.756 80.8776 82.987 81.6952C84.2088 82.5128 85.2285 83.165 85.2468 83.1375C85.2652 83.1099 86.7351 80.896 88.5172 78.2227C90.2994 75.5402 91.8979 73.1793 92.0632 72.9588C92.2378 72.7476 92.5317 72.4903 92.7155 72.3893C92.9451 72.279 93.2575 72.2147 93.5882 72.2056H93.5974Z" fill="white"/>
<defs>
<filter id="filter0_d_721_2" x="0.496094" y="0.0674438" width="146.5" height="146.5" filterUnits="userSpaceOnUse" color-interpolation-filters="sRGB">
<feFlood flood-opacity="0" result="BackgroundImageFix"/>
<feColorMatrix in="SourceAlpha" type="matrix" values="0 0 0 0 0 0 0 0 0 0 0 0 0 0 0 0 0 0 127 0" result="hardAlpha"/>
<feOffset dy="4"/>
<feGaussianBlur stdDeviation="12.5"/>
<feComposite in2="hardAlpha" operator="out"/>
<feColorMatrix type="matrix" values="0 0 0 0 0 0 0 0 0 0 0 0 0 0 0 0 0 0 0.1 0"/>
<feBlend mode="normal" in2="BackgroundImageFix" result="effect1_dropShadow_721_2"/>
<feBlend mode="normal" in="SourceGraphic" in2="effect1_dropShadow_721_2" result="shape"/>
</filter>
</defs>
</svg>
